<?xml version="1.0" encoding="UTF-8" standalone="no"?>
<svg
   xmlns:dc="http://purl.org/dc/elements/1.1/"
   xmlns:cc="http://creativecommons.org/ns#"
   xmlns:rdf="http://www.w3.org/1999/02/22-rdf-syntax-ns#"
   xmlns:svg="http://www.w3.org/2000/svg"
   xmlns="http://www.w3.org/2000/svg"
   viewBox="0 0 786 205.49333"
   height="205.49333"
   width="786"
   xml:space="preserve"
   id="svg2"
   version="1.1"><metadata
     id="metadata8"><rdf:RDF><cc:Work
         rdf:about=""><dc:format>image/svg+xml</dc:format><dc:type
           rdf:resource="http://purl.org/dc/dcmitype/StillImage" /></cc:Work></rdf:RDF></metadata><defs
     id="defs6"><clipPath
       id="clipPath20"
       clipPathUnits="userSpaceOnUse"><path
         id="path18"
         d="M 0,0 H 5894.99 V 1541 H 0 Z" /></clipPath></defs><g
     transform="matrix(1.3333333,0,0,-1.3333333,0,205.49333)"
     id="g10"><g
       transform="scale(0.1)"
       id="g12"><g
         id="g14"><g
           clip-path="url(#clipPath20)"
           id="g16"><path
             id="path22"
             style="fill:#ffffff;fill-opacity:1;fill-rule:nonzero;stroke:none"
             d="m 1703.02,1070.93 c 4.79,22.07 17.27,32.63 39.35,32.63 h 335.01 c 21.12,0 28.8,-10.56 24,-32.63 l -10.56,-48.97 c -3.84,-22.069 -15.35,-32.632 -36.48,-32.632 h -231.33 l -32.64,-162.226 h 209.26 c 21.12,0 28.8,-9.602 24,-32.637 l -9.6,-48 c -4.8,-22.078 -16.32,-32.637 -37.44,-32.637 h -210.23 l -54.71,-268.777 c -4.8,-22.082 -16.32,-31.68 -37.43,-31.68 h -72.96 c -22.08,0 -30.72,9.598 -25.92,31.68 l 127.68,625.879" /><path
             id="path24"
             style="fill:#ffffff;fill-opacity:1;fill-rule:nonzero;stroke:none"
             d="m 2336.61,503.602 c 92.16,0 152.63,88.312 152.63,185.265 0,54.719 -30.72,128.633 -114.23,128.633 -97.91,0 -151.67,-97.914 -151.67,-185.266 0,-66.238 36.47,-128.632 113.27,-128.632 z m 52.79,415.652 c 137.28,0 237.11,-78.715 237.11,-216.942 0,-185.273 -135.35,-300.46 -304.3,-300.46 -123.83,0 -236.14,68.16 -236.14,218.863 0,165.105 119.03,298.539 303.33,298.539" /><path
             id="path26"
             style="fill:#ffffff;fill-opacity:1;fill-rule:nonzero;stroke:none"
             d="m 2875.75,546.809 h 5.76 l 175.67,331.168 c 10.56,21.117 24,29.757 46.08,29.757 h 73.91 c 13.44,0 20.16,-5.761 19.2,-15.359 0,-5.758 -3.84,-11.52 -7.68,-19.199 l -400.3,-690.188 c -11.51,-20.16 -23.99,-29.758 -46.07,-29.758 h -73.92 c -15.35,0 -22.08,5.758 -20.15,17.282 0.96,4.789 3.84,10.558 8.64,17.269 l 129.59,208.309 -84.47,477.086 c -0.97,3.844 -1.93,9.597 -1.93,13.441 0.96,14.399 11.53,21.117 26.88,21.117 h 74.88 c 22.07,0 31.67,-8.64 34.55,-29.757 l 39.36,-331.168" /><path
             id="path28"
             style="fill:#ffffff;fill-opacity:1;fill-rule:nonzero;stroke:none"
             d="m 3578.45,708.066 c 6.72,67.2 -22.08,115.196 -91.2,115.196 -65.27,0 -117.11,-47.039 -134.38,-115.196 z m 68.16,-83.504 h -305.27 c -0.95,-82.558 41.28,-127.671 127.68,-127.671 78.71,0 117.11,25.91 139.19,25.91 10.56,0 15.36,-5.762 14.39,-19.199 l -5.76,-47.993 c -1.91,-17.281 -9.6,-24.949 -31.67,-32.64 -48,-17.278 -96.95,-21.117 -139.19,-21.117 -169.91,0 -236.14,108.468 -236.14,223.664 0,167.988 114.23,293.738 280.29,293.738 150.72,0 224.63,-95.035 199.67,-262.063 -2.88,-21.117 -17.27,-32.629 -43.19,-32.629" /><path
             id="path30"
             style="fill:#ffffff;fill-opacity:1;fill-rule:nonzero;stroke:none"
             d="m 3772.39,413.371 c -19.2,0 -25.92,9.598 -22.08,30.719 l 88.32,432.93 c 4.79,21.117 16.32,30.714 34.55,30.714 h 69.12 c 20.16,0 27.83,-9.597 23.04,-30.714 l -7.69,-37.438 h 3.85 c 41.27,55.672 81.59,80.633 143.98,80.633 19.2,0 35.52,-1.922 44.16,-4.801 9.6,-3.84 15.36,-9.598 11.52,-28.797 l -12.48,-58.558 c -3.84,-19.196 -13.44,-25.918 -29.76,-25.918 -12.48,0 -23.99,4.8 -49.91,4.8 -81.59,0 -129.59,-74.875 -148.79,-169.91 L 3880.87,444.09 c -3.85,-21.121 -16.32,-30.719 -35.52,-30.719 h -72.96" /><path
             id="path32"
             style="fill:#ffffff;fill-opacity:1;fill-rule:nonzero;stroke:none"
             d="m 4308.42,1084.94 c 3.96,19.79 13.86,28.71 31.68,28.71 h 47.52 c 16.83,0 22.78,-8.92 18.81,-28.71 L 4285.65,493.922 h 272.25 c 16.83,0 22.77,-8.922 18.82,-28.723 l -6.94,-34.64 c -3.96,-19.797 -13.86,-28.719 -30.69,-28.719 h -344.51 c -17.83,0 -23.76,8.922 -19.81,28.719 l 133.65,654.381" /><path
             id="path34"
             style="fill:#ffffff;fill-opacity:1;fill-rule:nonzero;stroke:none"
             d="m 4748.97,878.031 c 3.96,19.801 13.86,28.707 31.68,28.707 h 42.57 c 15.84,0 21.78,-8.906 17.81,-28.707 l -91.07,-447.472 c -4.95,-19.797 -13.86,-28.719 -29.7,-28.719 h -42.57 c -17.82,0 -24.75,8.922 -19.8,28.719 l 91.08,447.472" /><path
             id="path36"
             style="fill:#ffffff;fill-opacity:1;fill-rule:nonzero;stroke:none"
             d="m 4832.31,1122.36 c 32.67,0 57.42,-26.73 56.43,-58.41 -0.99,-32.67 -28.71,-59.4 -61.37,-59.4 -31.68,0 -56.44,26.73 -55.44,59.4 0.98,31.68 28.7,58.41 60.38,58.41" /><path
             id="path38"
             style="fill:#ffffff;fill-opacity:1;fill-rule:nonzero;stroke:none"
             d="m 5089.53,498.871 h 6.92 l 210.87,383.121 c 9.9,17.817 17.82,24.746 34.65,24.746 h 55.44 c 11.88,0 16.83,-4.945 14.85,-14.847 -0.99,-4.95 -5.93,-11.883 -9.9,-19.801 L 5144.97,428.57 c -10.9,-17.808 -21.79,-26.73 -36.63,-26.73 h -66.33 c -14.85,0 -21.79,8.922 -24.76,26.73 l -75.23,443.52 c -1,5.941 -2.97,13.859 -1.98,19.801 1.98,9.902 8.9,14.847 20.79,14.847 h 51.47 c 16.84,0 21.79,-6.929 24.76,-24.746 l 52.47,-383.121" /><path
             id="path40"
             style="fill:#ffffff;fill-opacity:1;fill-rule:nonzero;stroke:none"
             d="m 5803.21,703.793 c 7.92,82.168 -31.68,134.641 -113.85,134.641 -81.18,0 -139.59,-61.383 -159.39,-134.641 z m 44.55,-71.277 H 5517.1 c -5.94,-108.907 47.52,-165.325 143.55,-165.325 88.11,0 130.68,32.661 150.48,32.661 6.92,0 11.87,-2.973 10.89,-14.852 l -3.97,-42.559 c -1.97,-16.839 -12.87,-21.793 -27.71,-27.722 -46.53,-18.809 -90.09,-24.758 -139.59,-24.758 -149.49,0 -230.67,82.168 -230.67,227.703 0,163.348 107.91,300.957 277.2,300.957 139.58,0 215.81,-89.101 194.04,-251.461 -2.97,-23.758 -16.83,-34.644 -43.56,-34.644" /><path
             id="path42"
             style="fill:#ffffff;fill-opacity:1;fill-rule:nonzero;stroke:none"
             d="M 719.418,388.379 604.336,388.371 536.508,48.3281 C 531.203,21.75 547.934,0 573.684,0 c 25.75,0 68.859,0.0117188 95.796,0.0117188 h 33.489 c 26.941,0.0078124 55.922,0.0078124 64.406,0.0078124 8.484,0 29.555,0 46.816,0 17.266,0 53.434,0.0117188 80.371,0.0117188 h 64.344 c 26.938,0.0078125 53.314,21.75785 58.624,48.33985 L 1135.67,640.66 c 5.31,26.582 -12.4,48.328 -39.33,48.324 l -64.35,-0.004 c -26.94,0 -63.103,-0.003 -80.369,-0.007 -17.266,0 -38.332,0 -46.816,-0.004 -7.598,0 -31.649,0 -55.942,-0.004 L 802.551,456.82 c -7.656,-38.371 -44.18,-68.441 -83.133,-68.441" /><path
             id="path44"
             style="fill:#ffffff;fill-opacity:1;fill-rule:nonzero;stroke:none"
             d="m 471.625,1127.3 110.578,0.01 17.945,89.96 c 5.301,26.58 -12.402,48.33 -39.339,48.33 l -64.34,-0.01 c -26.938,0 -63.106,0 -80.371,0 -17.266,-0.01 -38.336,-0.01 -46.821,-0.01 -8.484,0 -37.465,0 -64.406,0 l -33.488,-0.01 c -26.938,0 -70.047,0 -95.797,0 -25.75,-0.01 -51.156,-21.76 -56.457,-48.34 L 0.980469,624.938 C -4.32031,598.359 12.4062,576.613 38.1562,576.613 c 25.75,0.004 68.8598,0.004 95.7968,0.008 l 33.492,0.004 c 26.938,0 55.918,0.004 64.407,0.004 8.484,0 29.55,0.004 46.816,0.004 4.219,0 9.707,0 15.781,0 l 96.199,482.227 c 7.645,38.37 43.211,68.44 80.977,68.44" /><path
             id="path46"
             style="fill:#ffffff;fill-opacity:1;fill-rule:nonzero;stroke:none"
             d="m 1267.02,1541.24 -64.34,-0.01 c -26.94,0 -63.11,0 -80.38,0 -17.26,0 -38.33,0 -46.81,0 -8.49,-0.01 -37.47,-0.01 -64.41,-0.01 h -33.49 c -26.938,-0.01 -70.043,-0.01 -95.793,-0.01 -25.75,0 -51.156,-21.75 -56.461,-48.33 l -72.918,-365.56 104.43,0.01 c 20.304,0 38.886,-8.46 50.996,-23.23 12.179,-14.85 16.867,-34.89 12.863,-54.99 L 881.438,852.27 c 24.527,0 48.949,0 56.621,0.003 8.484,0 29.55,0 46.816,0.004 17.265,0 53.435,0.004 80.375,0.004 l 64.34,0.004 c 26.94,0.004 53.32,21.754 58.62,48.336 l 118.15,592.289 c 5.3,26.59 -12.4,48.33 -39.34,48.33" /><path
             id="path48"
             style="fill:#ffffff;fill-opacity:1;fill-rule:nonzero;stroke:none"
             d="m 471.625,1077.3 c -13.77,0 -28.996,-13.45 -31.934,-28.21 L 321.535,456.789 c -1.152,-5.769 -0.262,-10.969 2.442,-14.269 2.277,-2.758 5.714,-4.168 10.214,-4.168 l 385.227,0.027 c 14.902,0 31.152,13.461 34.09,28.23 L 871.664,1058.9 c 1.082,5.43 0.203,10.22 -2.473,13.49 -2.656,3.23 -6.914,4.94 -12.332,4.94 l -289.441,-0.02 -95.793,-0.01" /><path
             id="path50"
             style="fill:#ffffff;fill-opacity:1;fill-rule:nonzero;stroke:none"
             d="m 856.859,1077.33 c 5.418,0 9.676,-1.71 12.332,-4.94 2.676,-3.27 3.555,-8.06 2.473,-13.49 L 753.508,466.609 c -2.938,-14.769 -19.188,-28.23 -34.09,-28.23 l -385.227,-0.027 c -4.5,0 -7.937,1.41 -10.214,4.168 -2.704,3.3 -3.594,8.5 -2.442,14.269 l 118.156,592.301 c 2.938,14.76 18.164,28.21 31.934,28.21 l 95.793,0.01 289.441,0.02" /></g></g></g></g></svg>