<svg id="Layer_1" data-name="Layer 1" xmlns="http://www.w3.org/2000/svg" viewBox="0 0 589.5 154.12"><defs><style>.cls-1{fill:#29b473;}.cls-2{fill:#ec1885;}.cls-3{fill:#fff100;}.cls-4{fill:#f9b628;}.cls-5{fill:#00adee;}.cls-6{fill:#d0de58;}.cls-7{fill:#dee23e;}.cls-8{fill:#fff;}</style></defs><title>foyerlive-logo</title><path class="cls-1" d="M79.39,114.73h-11l-7.28,36.5a3.8,3.8,0,0,0,3.72,4.83h38.52a6.26,6.26,0,0,0,5.86-4.83L121,92a3.88,3.88,0,0,0-3.93-4.83H89.78L85.25,109.9A6.26,6.26,0,0,1,79.39,114.73Z" transform="translate(-7.45 -1.95)"/><path class="cls-2" d="M54.61,45.84H65.17l2.29-11.5a3.88,3.88,0,0,0-3.93-4.83H25a6.12,6.12,0,0,0-5.65,4.83L7.55,93.58a3.8,3.8,0,0,0,3.72,4.83H39.44L49,50.67A6.12,6.12,0,0,1,54.61,45.84Z" transform="translate(-7.45 -1.95)"/><path class="cls-3" d="M81.88,70.85A3.8,3.8,0,0,1,78.17,66l4-20.17h-17L55.65,93.57a6.26,6.26,0,0,1-5.86,4.83H39.44l-2.29,11.5a3.8,3.8,0,0,0,3.72,4.83H68.38L72.91,92a6.12,6.12,0,0,1,5.65-4.83H89.78L93,70.84H81.88Z" transform="translate(-7.45 -1.95)"/><path class="cls-4" d="M49.79,98.41a6.26,6.26,0,0,0,5.86-4.83l9.52-47.73H54.61A6.12,6.12,0,0,0,49,50.67L39.44,98.41H49.79Z" transform="translate(-7.45 -1.95)"/><path class="cls-5" d="M134.15,1.95H95.63A6.12,6.12,0,0,0,90,6.78L82.19,45.84H93.13a3.88,3.88,0,0,1,3.93,4.83L93,70.84h27.36A6.26,6.26,0,0,0,126.27,66L138.08,6.78A3.88,3.88,0,0,0,134.15,1.95Z" transform="translate(-7.45 -1.95)"/><path class="cls-6" d="M93.13,45.84H82.19L78.17,66a3.8,3.8,0,0,0,3.72,4.83H93l4-20.17A3.88,3.88,0,0,0,93.13,45.84Z" transform="translate(-7.45 -1.95)"/><path class="cls-7" d="M78.56,87.18A6.12,6.12,0,0,0,72.91,92l-4.53,22.72h11a6.26,6.26,0,0,0,5.86-4.83l4.53-22.73H78.56Z" transform="translate(-7.45 -1.95)"/><path class="cls-8" d="M177.75,49a3.63,3.63,0,0,1,3.94-3.26h33.5c2.11,0,2.88,1.06,2.4,3.26l-1.06,4.9c-0.38,2.21-1.54,3.26-3.65,3.26H189.75l-3.26,16.22h20.93c2.11,0,2.88,1,2.4,3.26l-1,4.8c-0.48,2.21-1.63,3.26-3.74,3.26h-21l-5.47,26.88c-0.48,2.21-1.63,3.17-3.74,3.17h-7.3c-2.21,0-3.07-1-2.59-3.17Z" transform="translate(-7.45 -1.95)"/><path class="cls-8" d="M246.39,64.15c13.73,0,23.71,7.87,23.71,21.69,0,18.53-13.54,30-30.43,30-12.38,0-23.61-6.82-23.61-21.89C216.06,77.49,228,64.15,246.39,64.15Zm-5.28,41.56c9.22,0,15.26-8.83,15.26-18.53,0-5.47-3.07-12.86-11.42-12.86-9.79,0-15.17,9.79-15.17,18.53C229.78,99.47,233.43,105.71,241.11,105.71Z" transform="translate(-7.45 -1.95)"/><path class="cls-8" d="M295,101.39h0.58l17.57-33.12a4.63,4.63,0,0,1,4.61-3h7.39c1.34,0,2,.58,1.92,1.54a5,5,0,0,1-.77,1.92l-40,69c-1.15,2-2.4,3-4.61,3h-7.39q-2.3,0-2-1.73a4.78,4.78,0,0,1,.86-1.73l13-20.83-8.45-47.71a6.44,6.44,0,0,1-.19-1.34c0.1-1.44,1.15-2.11,2.69-2.11h7.49c2.21,0,3.17.86,3.46,3Z" transform="translate(-7.45 -1.95)"/><path class="cls-8" d="M372.11,93.62H341.58c-0.1,8.26,4.13,12.77,12.77,12.77,7.87,0,11.71-2.59,13.92-2.59,1.06,0,1.54.58,1.44,1.92l-0.58,4.8c-0.19,1.73-1,2.5-3.17,3.26A41,41,0,0,1,352,115.89c-17,0-23.61-10.85-23.61-22.37,0-16.8,11.42-29.37,28-29.37,15.07,0,22.46,9.5,20,26.21C376.14,92.46,374.7,93.62,372.11,93.62Zm-6.82-8.35c0.67-6.72-2.21-11.52-9.12-11.52-6.53,0-11.71,4.7-13.44,11.52h22.56Z" transform="translate(-7.45 -1.95)"/><path class="cls-8" d="M384.69,114.73c-1.92,0-2.59-1-2.21-3.07l8.83-43.29c0.48-2.11,1.63-3.07,3.46-3.07h6.91c2,0,2.78,1,2.3,3.07l-0.77,3.74h0.38C407.73,66.55,411.76,64,418,64a16,16,0,0,1,4.42.48c1,0.38,1.54,1,1.15,2.88l-1.25,5.86c-0.38,1.92-1.34,2.59-3,2.59-1.25,0-2.4-.48-5-0.48-8.16,0-13,7.49-14.88,17l-3.94,19.29a3.31,3.31,0,0,1-3.55,3.07h-7.3Z" transform="translate(-7.45 -1.95)"/><path class="cls-8" d="M438.29,47.58c0.4-2,1.39-2.87,3.17-2.87h4.75c1.68,0,2.28.89,1.88,2.87L436,106.68h27.22c1.68,0,2.28.89,1.88,2.87L464.43,113c-0.4,2-1.39,2.87-3.07,2.87H426.91c-1.78,0-2.38-.89-2-2.87Z" transform="translate(-7.45 -1.95)"/><path class="cls-8" d="M482.35,68.27c0.4-2,1.39-2.87,3.17-2.87h4.26c1.58,0,2.18.89,1.78,2.87L482.44,113c-0.5,2-1.39,2.87-3,2.87h-4.26c-1.78,0-2.48-.89-2-2.87Z" transform="translate(-7.45 -1.95)"/><path class="cls-8" d="M490.68,43.84a5.62,5.62,0,0,1,5.64,5.84,6.2,6.2,0,0,1-6.14,5.94,5.63,5.63,0,0,1-5.54-5.94A6.16,6.16,0,0,1,490.68,43.84Z" transform="translate(-7.45 -1.95)"/><path class="cls-8" d="M516.4,106.18h0.69l21.09-38.31c1-1.78,1.78-2.47,3.46-2.47h5.54q1.78,0,1.49,1.48a12.13,12.13,0,0,1-1,2l-25.74,44.35c-1.09,1.78-2.18,2.67-3.66,2.67h-6.63c-1.49,0-2.18-.89-2.48-2.67l-7.52-44.35a6.73,6.73,0,0,1-.2-2,1.83,1.83,0,0,1,2.08-1.48h5.15c1.68,0,2.18.69,2.48,2.47Z" transform="translate(-7.45 -1.95)"/><path class="cls-8" d="M592.22,92.82H559.16c-0.59,10.89,4.75,16.53,14.36,16.53,8.81,0,13.07-3.27,15-3.27,0.69,0,1.19.3,1.09,1.48l-0.4,4.26c-0.2,1.68-1.29,2.18-2.77,2.77a35.55,35.55,0,0,1-14,2.48c-14.95,0-23.07-8.22-23.07-22.77,0-16.33,10.79-30.1,27.72-30.1,14,0,21.58,8.91,19.4,25.15C596.28,91.73,594.9,92.82,592.22,92.82Zm-4.46-7.13c0.79-8.22-3.17-13.46-11.38-13.46s-14,6.14-15.94,13.46h27.32Z" transform="translate(-7.45 -1.95)"/></svg>